<svg xmlns="http://www.w3.org/2000/svg" xmlns:xlink="http://www.w3.org/1999/xlink" viewBox="0 0 184.98 223.95"><defs><style>.cls-1{fill:url(#linear-gradient);}.cls-2{fill:#f7c249;}.cls-3{fill:none;stroke:#fff;stroke-linecap:round;stroke-miterlimit:10;stroke-width:2px;}.cls-4{fill:#fff;}</style><linearGradient id="linear-gradient" x1="-10.28" y1="16.73" x2="183.82" y2="243.01" gradientUnits="userSpaceOnUse"><stop offset="0.25" stop-color="#3cd691"/><stop offset="0.57" stop-color="#5ccc61"/><stop offset="0.93" stop-color="#55d625"/></linearGradient></defs><g id="Layer_2" data-name="Layer 2"><g id="Layer_1-2" data-name="Layer 1"><path class="cls-1" d="M155.39,100.6A70.24,70.24,0,1,0,21.81,70.24,69.75,69.75,0,0,0,29,101.16,92.49,92.49,0,0,0,18.53,224a75.05,75.05,0,0,1,148.65-1A92.5,92.5,0,0,0,155.39,100.6ZM92.06,10.47A59.76,59.76,0,1,1,32.28,70.24,59.84,59.84,0,0,1,92.06,10.47Z"/><polygon class="cls-2" points="76.7 113.43 84.47 74.63 65.06 74.63 106.18 26.59 98.44 63.76 118.62 63.76 76.7 113.43"/><line class="cls-3" x1="92.1" y1="48.58" x2="78.37" y2="65.48"/><circle class="cls-4" cx="75.21" cy="68.65" r="1.06"/></g></g></svg>